<svg id="Layer_1" data-name="Layer 1" xmlns="http://www.w3.org/2000/svg" viewBox="0 0 236.45 146.2">
  <defs>
    <style>
      .cls-1 {
        fill: #f5f6fa;
      }

      .cls-2 {
        fill: #e84118;
      }
    </style>
  </defs>
  <title>logo</title>
  <!-- letterD -->
  <path id="letter1" class="cls-1" d="M230.12,187.27a66.54,66.54,0,0,0-14.9-22.86,67.61,67.61,0,0,0-23.1-14.89,80.41,80.41,0,0,0-29.9-5.36h-.59v21.4h.59a49.41,49.41,0,0,1,19.05,3.5,39.21,39.21,0,0,1,14.35,10.06,44.94,44.94,0,0,1,9.1,16,72.79,72.79,0,0,1,0,42.69,44.94,44.94,0,0,1-9.1,16,39.21,39.21,0,0,1-14.35,10.06,49.41,49.41,0,0,1-19.05,3.5H107v21.4h55.2a81.21,81.21,0,0,0,29.9-5.3,65.64,65.64,0,0,0,38-37.8,83.09,83.09,0,0,0,0-58.4Z" transform="translate(-106.78 -142.56)"/>
  <!-- letterD square -->
  <rect id="square1" class="cls-2" y="0.86" width="22.93" height="22.93"/>
  <!-- letterS -->
  <path id="letter2" class="cls-1" d="M339.87,261.81a49.84,49.84,0,0,0,3.35-18.34,37,37,0,0,0-2.85-15.3,32.53,32.53,0,0,0-7.55-10.65,42.69,42.69,0,0,0-10.7-7.21,119.15,119.15,0,0,0-12.25-5q-6.24-2.15-12.25-4a71.75,71.75,0,0,1-10.7-4.3,23.81,23.81,0,0,1-7.55-5.81,12.77,12.77,0,0,1-2.85-8.5,19,19,0,0,1,1.4-7.35,15.08,15.08,0,0,1,4.25-5.75,21.06,21.06,0,0,1,7-3.75,31.65,31.65,0,0,1,9.75-1.34A33.19,33.19,0,0,1,309.67,166a47.14,47.14,0,0,1,7.95,3.45c2.27,1.26,4.23,2.41,5.9,3.44l7,4,10.06-19.15a53.29,53.29,0,0,0-18.4-11.21,67.58,67.58,0,0,0-23.6-4,54.15,54.15,0,0,0-20.1,3.5,45.63,45.63,0,0,0-14.85,9.31,39.75,39.75,0,0,0-12.35,28.69q0,9.9,2.85,16.66A33.26,33.26,0,0,0,261.72,212a39.7,39.7,0,0,0,10.7,7.3,106,106,0,0,0,12.2,4.79q6.21,2,12.2,3.71a55.62,55.62,0,0,1,10.7,4.15,22.77,22.77,0,0,1,7.55,6.05,14.53,14.53,0,0,1,2.85,9.3,28.68,28.68,0,0,1-.26,3.79L339,263.91C339.3,263.23,339.59,262.53,339.87,261.81Z" transform="translate(-106.78 -142.56)"/>
  <!-- letterS square -->
  <rect id="square2" class="cls-2" x="250.33" y="257.02" width="22.93" height="23.72" transform="matrix(0.86, 0.51, -0.51, 0.86, 68.68, -238.9)"/>
</svg>
